# xmcd
# 
# Track frame offsets:
#     150
#     28008
#     50453
#     74159
#     100073
#     123334
#     150774
#     183604
#     210548
#     237464
#     267962
#     285740
#     309975
# 
# Disc length: 4383
# 
# Revision: 4
# Processed by: cddbd v1.5.2PL0 Copyright (c) Steve Scherf et al.
# Submitted via: fre:ac v1.0.31
# 
DISCID=b7111d0d
DTITLE=Alejandro Sanz - and Es and El Concierto
DYEAR=2017
DGENRE=Pop
TTITLE0=Hoy Que No Estás Ft. Dani Martín
TTITLE1=Aquello Que Me Diste Ft. Pablo López
TTITLE2=La Fuerza Del Corazón Ft. Laura Pausini
TTITLE3=Quisiera Ser Ft. Juanes
TTITLE4=Siempre Es De Noche Ft. Miguel Poveda
TTITLE5=Looking For Paradise Ft. Coro Safari
TTITLE6=He Sido Tan Feliz Contigo, El Alma Al Aire, Regálame La Silla Donde Te Esperé, Hoy Llueve, Hoy Duele Ft. Pablo Alborán
TTITLE7=Si Hay Dios Ft. Pastora Soler
TTITLE8=Deja Que Te Bese Ft. Vanesa Martín
TTITLE9=Cuando Nadie Me Ve, Caí Ft. Niña Pastori
TTITLE10=Desde Cuándo Ft. Juan Luis Guerra
TTITLE11=Ese Ultimo Momento Ft. Manuel Carrasco
TTITLE12=Y, Si Fuera Ella? Ft. Pablo Alborán, David Bisbal, Antonio Carmona, Manuel Carrasco, Jesse and Joy, Juanes, Pablo López, Malú, Vanesa Martín, India Martínez, Antonio Orozco, Niña Pastori, Laura Pausini, Abel Pintos, Rozalén, Shakira y Tommy Torres
EXTD=
EXTT0=
EXTT1=
EXTT2=
EXTT3=
EXTT4=
EXTT5=
EXTT6=
EXTT7=
EXTT8=
EXTT9=
EXTT10=
EXTT11=
EXTT12=
PLAYORDER=
